<svg xmlns="http://www.w3.org/2000/svg" viewBox="0 0 320 550" role="img" aria-labelledby="title desc">
<title id="title">Diamond PPF package vehicle coverage diagram</title><desc id="desc">Original top-view schematic with side panels unfolded. Numbered gold panels match the coverage list. Includes both mirrors and headlights.</desc>
<defs><pattern id="protected" width="6" height="6" patternUnits="userSpaceOnUse"><rect width="6" height="6" fill="#bd9447"/><path d="M0 6L6 0" stroke="#f6d895" stroke-width="1"/></pattern></defs>
<g font-family="Arial,sans-serif"><text x="160" y="25" text-anchor="middle" fill="#f3d18a" font-size="12" letter-spacing="2">PRO MOBILE TINT</text><text x="160" y="53" text-anchor="middle" fill="#c1c8ce" font-size="12">FRONT ↑</text>
<path d="M97 85 Q160 58 223 85 Q237 170 218 240 L218 410 Q231 463 217 494 Q160 518 103 494 Q89 463 102 410 L102 240 Q83 170 97 85Z" fill="none" stroke="#56616d" stroke-width="2"/><g fill="#0a0e12" stroke="#56616d"><rect x="80" y="155" width="10" height="43" rx="4"/><rect x="230" y="155" width="10" height="43" rx="4"/><rect x="88" y="404" width="10" height="43" rx="4"/><rect x="222" y="404" width="10" height="43" rx="4"/></g><path d="M105 85 Q160 65 215 85 L220 112 H100 Z" fill="url(#protected)" stroke="#8a929b" stroke-width="1.5"/><circle cx="160" cy="96" r="10" fill="#f3d18a" stroke="#111820"/><text x="160" y="100" text-anchor="middle" fill="#101419" font-size="12" font-weight="700">1</text><path d="M116 120 H204 L201 211 Q160 200 119 211 Z" fill="url(#protected)" stroke="#8a929b" stroke-width="1.5"/><circle cx="160" cy="164" r="10" fill="#f3d18a" stroke="#111820"/><text x="160" y="168" text-anchor="middle" fill="#101419" font-size="12" font-weight="700">3</text><path d="M93 120 h18 v91 h-18 Z" fill="url(#protected)" stroke="#8a929b" stroke-width="1.5"/><circle cx="102" cy="174" r="10" fill="#f3d18a" stroke="#111820"/><text x="102" y="178" text-anchor="middle" fill="#101419" font-size="12" font-weight="700">6</text><path d="M74 218 h20 v13 h-20 Z" fill="url(#protected)" stroke="#8a929b" stroke-width="1.5"/><circle cx="84" cy="225" r="10" fill="#f3d18a" stroke="#111820"/><text x="84" y="229" text-anchor="middle" fill="#101419" font-size="12" font-weight="700">8</text><path d="M105 216 h10 v52 h-10 Z" fill="url(#protected)" stroke="#8a929b" stroke-width="1.5"/><circle cx="110" cy="238" r="10" fill="#f3d18a" stroke="#111820"/><text x="110" y="242" text-anchor="middle" fill="#101419" font-size="12" font-weight="700">10</text><path d="M208 120 h18 v91 h-18 Z" fill="url(#protected)" stroke="#8a929b" stroke-width="1.5"/><circle cx="217" cy="174" r="10" fill="#f3d18a" stroke="#111820"/><text x="217" y="178" text-anchor="middle" fill="#101419" font-size="12" font-weight="700">7</text><path d="M226 218 h20 v13 h-20 Z" fill="url(#protected)" stroke="#8a929b" stroke-width="1.5"/><circle cx="236" cy="225" r="10" fill="#f3d18a" stroke="#111820"/><text x="236" y="229" text-anchor="middle" fill="#101419" font-size="12" font-weight="700">8</text><path d="M205 216 h10 v52 h-10 Z" fill="url(#protected)" stroke="#8a929b" stroke-width="1.5"/><circle cx="210" cy="238" r="10" fill="#f3d18a" stroke="#111820"/><text x="210" y="242" text-anchor="middle" fill="#101419" font-size="12" font-weight="700">10</text><path d="M120 216 Q160 207 200 216 L197 263 H123 Z" fill="#252b31" stroke="#8a929b" stroke-width="1.5"/><path d="M123 270 H197 V353 H123 Z" fill="#252b31" stroke="#8a929b" stroke-width="1.5"/><path d="M123 270 H197 V295 H123 Z" fill="url(#protected)" stroke="#8a929b" stroke-width="1.5"/><circle cx="160" cy="282" r="10" fill="#f3d18a" stroke="#111820"/><text x="160" y="286" text-anchor="middle" fill="#101419" font-size="12" font-weight="700">4</text><path d="M123 360 H197 L204 396 H116 Z" fill="#252b31" stroke="#8a929b" stroke-width="1.5"/><path d="M116 402 H204 V456 H116 Z" fill="url(#protected)" stroke="#8a929b" stroke-width="1.5"/><circle cx="160" cy="428" r="10" fill="#f3d18a" stroke="#111820"/><text x="160" y="432" text-anchor="middle" fill="#101419" font-size="12" font-weight="700">5</text><path d="M100 463 H220 L215 487 Q160 507 105 487 Z" fill="url(#protected)" stroke="#8a929b" stroke-width="1.5"/><circle cx="160" cy="480" r="10" fill="#f3d18a" stroke="#111820"/><text x="160" y="484" text-anchor="middle" fill="#101419" font-size="12" font-weight="700">2</text><path d="M45 270 h32 v58 h-32 Z" fill="url(#protected)" stroke="#8a929b" stroke-width="1.5"/><path d="M45 335 h32 v58 h-32 Z" fill="url(#protected)" stroke="#8a929b" stroke-width="1.5"/><circle cx="61" cy="299" r="10" fill="#f3d18a" stroke="#111820"/><text x="61" y="303" text-anchor="middle" fill="#101419" font-size="12" font-weight="700">6</text><path d="M45 402 h32 v48 h-32 Z" fill="url(#protected)" stroke="#8a929b" stroke-width="1.5"/><circle cx="61" cy="426" r="10" fill="#f3d18a" stroke="#111820"/><text x="61" y="430" text-anchor="middle" fill="#101419" font-size="12" font-weight="700">11</text><path d="M33 270 h8 v123 h-8 Z" fill="url(#protected)" stroke="#8a929b" stroke-width="1.5"/><circle cx="37" cy="365" r="10" fill="#f3d18a" stroke="#111820"/><text x="37" y="369" text-anchor="middle" fill="#101419" font-size="12" font-weight="700">12</text><path d="M243 270 h32 v58 h-32 Z" fill="url(#protected)" stroke="#8a929b" stroke-width="1.5"/><path d="M243 335 h32 v58 h-32 Z" fill="url(#protected)" stroke="#8a929b" stroke-width="1.5"/><circle cx="259" cy="299" r="10" fill="#f3d18a" stroke="#111820"/><text x="259" y="303" text-anchor="middle" fill="#101419" font-size="12" font-weight="700">7</text><path d="M243 402 h32 v48 h-32 Z" fill="url(#protected)" stroke="#8a929b" stroke-width="1.5"/><circle cx="259" cy="426" r="10" fill="#f3d18a" stroke="#111820"/><text x="259" y="430" text-anchor="middle" fill="#101419" font-size="12" font-weight="700">11</text><path d="M279 270 h8 v123 h-8 Z" fill="url(#protected)" stroke="#8a929b" stroke-width="1.5"/><circle cx="283" cy="365" r="10" fill="#f3d18a" stroke="#111820"/><text x="283" y="369" text-anchor="middle" fill="#101419" font-size="12" font-weight="700">12</text><path d="M104 113 h25 v6 h-25 Z" fill="url(#protected)" stroke="#8a929b" stroke-width="1.5"/><circle cx="116" cy="114" r="10" fill="#f3d18a" stroke="#111820"/><text x="116" y="118" text-anchor="middle" fill="#101419" font-size="12" font-weight="700">9</text><path d="M191 113 h25 v6 h-25 Z" fill="url(#protected)" stroke="#8a929b" stroke-width="1.5"/><circle cx="203" cy="114" r="10" fill="#f3d18a" stroke="#111820"/><text x="203" y="118" text-anchor="middle" fill="#101419" font-size="12" font-weight="700">9</text>
<text x="160" y="529" text-anchor="middle" fill="#c1c8ce" font-size="11">TOP VIEW · SIDE PANELS UNFOLDED</text></g></svg>